<svg xmlns="http://www.w3.org/2000/svg" viewBox="0 0 718.85 390.55"><path fill="#292c44" d="M127.06,354.49c-24.36,0-48.73-.09-73.09,.03-13.12,.07-24.92-3.51-34.96-12.06-15.2-12.95-21.4-29.43-18.19-49.14,3.41-21,16.12-34.67,35.74-41.33,12.04-4.09,24.66-3.59,36.54,1.98,2.77,1.3,4.09,.61,5.05-2.13,3.42-9.73,9.31-18.03,16.57-25.08,13.62-13.23,30.02-21.01,49.22-21.6,27.57-.85,49.43,10.4,65.32,32.74,8.27,11.63,12.37,24.98,12.75,39.33,.09,3.31,.96,5.51,3.96,7.66,21.73,15.58,21.83,46.51,.36,62.39-7.06,5.22-15.13,7.36-23.93,7.25-12.62-.16-25.24-.04-37.86-.04-12.49,0-24.99,0-37.48,0Z"/><path fill="#292c44" d="M120.81,122.28c-20.24,0-40.48,.15-60.71-.04-21.21-.2-38.65-14.28-42.39-34.31-3.16-16.92,1.9-31.3,15.33-42.08,12.82-10.3,27.42-12.01,42.71-6.22,3.12,1.18,4.18,.78,5.48-2.21C98.22-1.54,146.52-12.34,178.41,15.81c12.02,10.61,18.66,24.27,19.83,40.3,.34,4.61,1.42,7.82,5.43,10.86,10.45,7.91,14.04,22.05,9.69,34.43-4.29,12.21-15.88,20.7-29.22,20.82-21.11,.18-42.22,.05-63.34,.05h0Z"/><path fill="#292c44" d="M624.55,137.68c-20.11,0-40.22,.1-60.33-.03-20.45-.14-36.64-11.71-41.99-30.93-4.62-16.59-.83-31.56,12.07-43.41,12.62-11.59,27.38-14.05,43.56-8.86,.83,.27,1.67,.55,2.44,.95,2.17,1.14,3.18,.5,4.14-1.79,5.35-12.85,14.1-22.77,26.07-29.93,29.73-17.77,70.49-5.43,85.38,25.84,3.88,8.14,6.09,16.63,6.19,25.63,.03,2.55,.99,4.09,3.04,5.51,11.05,7.6,16.2,21.61,12.61,33.89-3.93,13.47-15.54,22.87-29.47,23.04-21.23,.26-42.47,.07-63.7,.07v.03Z"/><path fill="#292c44" d="M569.12,390.5c-14.37,0-28.74,.13-43.11-.03-13.68-.15-24.27-5.9-29.91-18.68-5.33-12.07-3.55-23.65,5.27-33.49,9.08-10.14,20.69-12.59,33.48-8.52,3.31,1.05,4.4,.41,5.86-2.5,8.29-16.49,21.76-25.79,40.26-25.75,18.44.04,32.3,8.97,40.19,25.77,2.48,5.28,2.89,11.52,4.42,17.28,.41,1.54,1.09,3.4,2.27,4.27,8.97,6.67,11.04,16.25,8.3,26.06-2.59,9.28-11.71,15.46-22.43,15.56-14.87,.14-29.74,.04-44.6,.04Z"/></svg>